<?xml version="1.0" encoding="utf-8"?>
<!-- Generator: Adobe Illustrator 26.1.0, SVG Export Plug-In . SVG Version: 6.00 Build 0)  -->
<svg version="1.1" xmlns="http://www.w3.org/2000/svg" xmlns:xlink="http://www.w3.org/1999/xlink" x="0px" y="0px"
	 viewBox="0 0 600 600" style="enable-background:new 0 0 600 600;" xml:space="preserve">
<style type="text/css">
	.st0{stroke:#FFFFFF;stroke-width:15.4893;stroke-miterlimit:10;}
</style>
<g id="right">
	<g>
		<path class="st0" d="M411.3,185.9c-42,0-63,8-63,28v312h100.8c25.2,0,42-8,58.8-28c12.6-16,21-48,25.2-92l50.4,4L571,586H176.1
			v-52c33.6,0,50.4-8,50.4-28v-292c0-20-16.8-28-50.4-28v-52h231v52H411.3z"/>
	</g>
</g>
<g id="left">
	<g>
		<path class="st0" d="M247.6,65.9c-42,0-63,8-63,28v312h100.8c25.2,0,42-8,58.8-28c12.6-16,21-48,25.2-92l50.4,4l-12.6,176H16.5
			v-52c33.6,0,50.4-8,50.4-28v-292c0-20-16.8-28-50.4-28v-52h231V65.9z"/>
	</g>
</g>
</svg>
